<svg width="360" height="360" viewBox="0 0 360 360" fill="none" xmlns="http://www.w3.org/2000/svg">
<path d="M0.01 85.02L4.63 80.75C6.96435 82.1996 9.4163 83.4507 11.96 84.49L10.76 94.73L13.42 95.6L18.47 86.6C21.09 87.25 23.81 87.68 26.59 87.88L28.61 98H31.41L33.43 87.88C36.17 87.68 38.89 87.26 41.55 86.6L46.6 95.59L49.26 94.73L48.06 84.49C50.61 83.46 53.06 82.2 55.39 80.75L62.97 87.75L65.23 86.1L60.93 76.72C63.0243 74.9546 64.9646 73.0143 66.73 70.92L76.11 75.22L77.76 72.96L70.76 65.38C72.2096 63.0456 73.4607 60.5937 74.5 58.05L84.74 59.25L85.61 56.59L76.61 51.54C77.2677 48.8748 77.696 46.1582 77.89 43.42L88.01 41.4V38.6L77.89 36.58C77.69 33.84 77.27 31.12 76.61 28.46L85.6 23.41L84.74 20.75L74.5 21.95C73.47 19.4 72.21 16.95 70.76 14.62L77.76 7.04L76.11 4.78L66.73 9.08C64.9646 6.98571 63.0243 5.04538 60.93 3.28L62.43 0H64.59L63.34 2.72C64.7288 3.9625 66.0475 5.2812 67.29 6.67L76.79 2.31L80.31 7.16L73.23 14.84C74.17 16.44 75.02 18.11 75.77 19.82L86.15 18.61L88 24.31L78.89 29.43C79.28 31.23 79.57 33.08 79.76 34.95L90.01 37V43L79.76 45.05C79.5733 46.9048 79.2829 48.7477 78.89 50.57L88 55.69L86.15 61.39L75.77 60.18C75.02 61.88 74.17 63.55 73.23 65.16L80.31 72.84L76.79 77.69L67.29 73.33C66.0475 74.7188 64.7288 76.0375 63.34 77.28L67.7 86.78L62.85 90.3L55.17 83.22C53.57 84.16 51.9 85.01 50.19 85.76L51.4 96.14L45.7 97.99L40.58 88.88C38.78 89.27 36.93 89.56 35.06 89.75L33.01 100H27.01L24.96 89.75C23.1052 89.5633 21.2623 89.2729 19.44 88.88L14.32 97.99L8.62 96.14L9.83 85.76C8.13 85.01 6.46 84.16 4.85 83.22L0.01 87.68V85.02ZM0.01 52.7V27.3L8.39 32.14C6.54029 37.2168 6.54029 42.7832 8.39 47.86L0.01 52.7ZM0.01 13.54C6.67851 5.96623 15.9685 1.19974 26.01 0.2V17.35C20.6869 18.2868 15.8644 21.0698 12.39 25.21L0.01 18.06V13.54ZM0.01 66.46V61.94L12.39 54.79C15.8644 58.9302 20.6869 61.7132 26.01 62.65V79.8C15.9685 78.8003 6.67851 74.0338 0.01 66.46ZM34.01 79.8V62.65C39.3331 61.7132 44.1556 58.9302 47.63 54.79L62.48 63.37C59.1705 67.9704 54.9205 71.8144 50.0121 74.6471C45.1037 77.4797 39.649 79.2362 34.01 79.8ZM66.49 56.44L51.63 47.86C53.4797 42.7832 53.4797 37.2168 51.63 32.14L66.49 23.56C68.8188 28.7274 70.0189 34.3321 70.01 40C70.0176 45.6678 68.8177 51.2722 66.49 56.44ZM62.48 16.64L47.63 25.2C44.154 21.0635 39.3317 18.2841 34.01 17.35V0.2C39.649 0.763785 45.1037 2.52027 50.0121 5.35291C54.9205 8.18556 59.1705 12.0296 62.48 16.63V16.64ZM0.01 50.38L5.99 46.93C4.68044 42.396 4.68044 37.584 5.99 33.05L0.01 29.6V50.38ZM0.51 16.03L11.99 22.66C15.26 19.26 19.43 16.86 24.01 15.72V2.47C14.7722 3.94325 6.40371 8.77562 0.51 16.04V16.03ZM0.51 63.95C6.40205 71.2181 14.7708 76.0542 24.01 77.53V64.28C19.4269 63.1463 15.259 60.7364 11.99 57.33L0.51 63.96V63.95ZM36.01 77.53C45.2478 76.0567 53.6163 71.2244 59.51 63.96L48.03 57.33C44.761 60.7364 40.5931 63.1463 36.01 64.28V77.53ZM65.51 53.57C68.8592 44.8333 68.8592 35.1667 65.51 26.43L54.03 33.06C55.3396 37.594 55.3396 42.406 54.03 46.94L65.52 53.57H65.51ZM59.51 16.04C53.6163 8.77562 45.2478 3.94325 36.01 2.47V15.72C40.67 16.87 44.81 19.32 48.03 22.67L59.51 16.04ZM30.01 54C28.1715 54 26.351 53.6379 24.6524 52.9343C22.9539 52.2307 21.4105 51.1995 20.1105 49.8995C18.8105 48.5995 17.7793 47.0561 17.0757 45.3576C16.3721 43.659 16.01 41.8385 16.01 40C16.01 38.1615 16.3721 36.341 17.0757 34.6424C17.7793 32.9439 18.8105 31.4005 20.1105 30.1005C21.4105 28.8005 22.9539 27.7693 24.6524 27.0657C26.351 26.3621 28.1715 26 30.01 26C33.723 26 37.284 27.475 39.9095 30.1005C42.535 32.726 44.01 36.287 44.01 40C44.01 43.713 42.535 47.274 39.9095 49.8995C37.284 52.525 33.723 54 30.01 54ZM30.01 52C33.1926 52 36.2448 50.7357 38.4953 48.4853C40.7457 46.2348 42.01 43.1826 42.01 40C42.01 36.8174 40.7457 33.7652 38.4953 31.5147C36.2448 29.2643 33.1926 28 30.01 28C26.8274 28 23.7752 29.2643 21.5247 31.5147C19.2743 33.7652 18.01 36.8174 18.01 40C18.01 43.1826 19.2743 46.2348 21.5247 48.4853C23.7752 50.7357 26.8274 52 30.01 52ZM30.01 50C27.3578 50 24.8143 48.9464 22.9389 47.0711C21.0636 45.1957 20.01 42.6522 20.01 40C20.01 37.3478 21.0636 34.8043 22.9389 32.9289C24.8143 31.0536 27.3578 30 30.01 30C32.6622 30 35.2057 31.0536 37.0811 32.9289C38.9564 34.8043 40.01 37.3478 40.01 40C40.01 42.6522 38.9564 45.1957 37.0811 47.0711C35.2057 48.9464 32.6622 50 30.01 50ZM30.01 48C32.1317 48 34.1666 47.1571 35.6669 45.6569C37.1671 44.1566 38.01 42.1217 38.01 40C38.01 37.8783 37.1671 35.8434 35.6669 34.3431C34.1666 32.8429 32.1317 32 30.01 32C27.8883 32 25.8534 32.8429 24.3531 34.3431C22.8529 35.8434 22.01 37.8783 22.01 40C22.01 42.1217 22.8529 44.1566 24.3531 45.6569C25.8534 47.1571 27.8883 48 30.01 48ZM240.53 103.15V103.16C241.4 103.23 242.27 103.33 243.13 103.46L244.63 99.55L246.57 95.91L250.46 96.88V101.01L249.96 105.14C250.79 105.42 251.6 105.73 252.4 106.07L254.82 102.64L257.58 99.57L261.12 101.45L260.12 105.45L258.63 109.34C259.36 109.81 260.08 110.31 260.78 110.83L263.97 108.07L267.39 105.77L270.36 108.44L268.43 112.09L266.05 115.49C266.65 116.13 267.25 116.79 267.81 117.48L271.49 115.54L275.34 114.06L277.63 117.34L274.93 120.45L271.81 123.27C272.24 124.03 272.65 124.8 273.03 125.59L277.07 124.59L281.17 124.09L282.6 127.82L279.23 130.19L275.53 132.17C275.76 133.01 275.97 133.85 276.15 134.71L280.32 134.72L284.42 135.22L284.9 139.19L281.05 140.67L276.99 141.69C277.02 142.56 277.02 143.44 276.99 144.31L281.05 145.33L284.9 146.81L284.42 150.78L280.32 151.29H276.15C275.97 152.15 275.76 153 275.52 153.83L279.22 155.81L282.6 158.18L281.17 161.91L277.07 161.41L273.03 160.41C272.65 161.2 272.24 161.97 271.81 162.73L274.94 165.55L277.64 168.66L275.34 171.94L271.49 170.46L267.81 168.51C267.248 169.198 266.661 169.865 266.05 170.51L268.43 173.92L270.36 177.56L267.39 180.23L263.97 177.93L260.78 175.17C260.08 175.687 259.363 176.18 258.63 176.65L260.11 180.55L261.11 184.55L257.58 186.43L254.82 183.36L252.4 179.93C251.6 180.26 250.79 180.58 249.95 180.86L250.45 184.99V189.12L246.57 190.09L244.63 186.44L243.13 182.54C242.27 182.67 241.4 182.77 240.53 182.85L240.01 187L239.01 191H235.01L234.01 187L233.49 182.84C232.62 182.77 231.753 182.67 230.89 182.54L229.39 186.45L227.45 190.09L223.56 189.12V184.99L224.06 180.86C223.23 180.58 222.42 180.27 221.62 179.93L219.2 183.36L216.44 186.43L212.9 184.55L213.9 180.55L215.39 176.66C214.65 176.19 213.94 175.69 213.24 175.17L210.05 177.93L206.63 180.23L203.66 177.56L205.59 173.91L207.97 170.51C207.36 169.86 206.77 169.2 206.21 168.52L202.53 170.46L198.68 171.94L196.39 168.66L199.09 165.55L202.21 162.73C201.78 161.97 201.37 161.2 200.99 160.41L196.95 161.41L192.85 161.91L191.42 158.18L194.79 155.81L198.49 153.83C198.26 152.99 198.05 152.15 197.87 151.29L193.7 151.28L189.6 150.78L189.12 146.81L192.97 145.33L197.03 144.31C197 143.44 197 142.56 197.03 141.69L192.97 140.67L189.12 139.19L189.6 135.22L193.7 134.71H197.87C198.05 133.85 198.26 133 198.5 132.17L194.8 130.19L191.42 127.82L192.85 124.09L196.95 124.59L200.99 125.59C201.37 124.8 201.78 124.03 202.21 123.27L199.08 120.45L196.38 117.34L198.68 114.06L202.53 115.54L206.21 117.49C206.772 116.802 207.36 116.135 207.97 115.49L205.59 112.08L203.66 108.44L206.63 105.77L210.05 108.07L213.24 110.83C213.94 110.31 214.65 109.81 215.39 109.35L213.91 105.45L212.91 101.45L216.44 99.57L219.2 102.64L221.62 106.07C222.42 105.74 223.23 105.42 224.07 105.14L223.57 101.01V96.88L227.45 95.91L229.39 99.56L230.89 103.46C231.75 103.33 232.62 103.23 233.49 103.15L234.01 99L235.01 95H239.01L240.01 99L240.53 103.15ZM226.23 106.55C224.4 107.09 222.63 107.76 220.93 108.55L217.43 103.58L216.05 102.05L215.17 102.52L215.67 104.52L217.83 110.19C216.199 111.146 214.641 112.223 213.17 113.41L208.56 109.41L206.85 108.26L206.1 108.93L207.07 110.75L210.54 115.73C209.172 117.06 207.905 118.491 206.75 120.01L201.38 117.17L199.46 116.43L198.89 117.25L200.24 118.81L204.76 122.9C203.757 124.499 202.874 126.17 202.12 127.9L196.23 126.45L194.19 126.2L193.83 127.14L195.52 128.32L200.88 131.19C200.293 132.987 199.842 134.825 199.53 136.69L193.45 136.7L191.41 136.95L191.29 137.95L193.21 138.68L199.11 140.18C198.972 142.061 198.972 143.949 199.11 145.83L193.21 147.32L191.29 148.06L191.41 149.05L193.45 149.3L199.53 149.31C199.84 151.17 200.3 153.01 200.88 154.81L195.52 157.68L193.82 158.86L194.19 159.8L196.23 159.55L202.13 158.09C202.881 159.823 203.76 161.498 204.76 163.1L200.24 167.2L198.89 168.75L199.46 169.57L201.38 168.83L206.75 165.99C207.908 167.51 209.178 168.94 210.55 170.27L207.07 175.25L206.1 177.07L206.85 177.74L208.55 176.59L213.17 172.59C214.641 173.777 216.199 174.854 217.83 175.81L215.66 181.48L215.16 183.48L216.05 183.95L217.43 182.42L220.93 177.44C222.63 178.24 224.4 178.91 226.23 179.44L225.5 185.48V187.54L226.47 187.78L227.44 185.96L229.64 180.28C231.47 180.64 233.34 180.88 235.26 180.96L236.01 187L236.51 189H237.51L238.01 187L238.76 180.96C240.648 180.873 242.526 180.645 244.38 180.28L246.58 185.96L247.55 187.78L248.52 187.54V185.48L247.79 179.45C249.62 178.91 251.39 178.24 253.09 177.45L256.59 182.42L257.97 183.95L258.85 183.48L258.35 181.48L256.19 175.81C257.821 174.854 259.379 173.777 260.85 172.59L265.46 176.59L267.17 177.74L267.92 177.07L266.95 175.25L263.48 170.27C264.848 168.94 266.115 167.509 267.27 165.99L272.64 168.83L274.56 169.57L275.13 168.75L273.78 167.19L269.26 163.1C270.26 161.5 271.14 159.83 271.9 158.1L277.79 159.55L279.83 159.8L280.19 158.86L278.5 157.68L273.14 154.81C273.728 153.013 274.18 151.175 274.49 149.31L280.57 149.3L282.61 149.05L282.73 148.05L280.81 147.32L274.91 145.82C275.05 143.94 275.05 142.05 274.91 140.17L280.81 138.68L282.73 137.94L282.61 136.95L280.57 136.7L274.49 136.69C274.18 134.825 273.728 132.987 273.14 131.19L278.5 128.32L280.2 127.14L279.83 126.2L277.79 126.45L271.89 127.91C271.139 126.177 270.26 124.502 269.26 122.9L273.78 118.8L275.13 117.25L274.56 116.43L272.64 117.17L267.27 120.01C266.112 118.49 264.842 117.06 263.47 115.73L266.95 110.75L267.92 108.93L267.17 108.26L265.47 109.41L260.85 113.41C259.379 112.223 257.821 111.146 256.19 110.19L258.36 104.52L258.86 102.52L257.97 102.05L256.59 103.58L253.09 108.56C251.39 107.76 249.62 107.09 247.79 106.56L248.52 100.52V98.46L247.55 98.22L246.58 100.04L244.38 105.72C242.55 105.36 240.68 105.12 238.76 105.04L238.01 99L237.51 97H236.51L236.01 99L235.26 105.04C233.34 105.13 231.46 105.36 229.64 105.72L227.44 100.04L226.47 98.22L225.5 98.46V100.52L226.23 106.55ZM220.38 112.2C225.188 109.592 230.542 108.153 236.01 108V114C231.596 114.147 227.274 115.306 223.38 117.39L220.38 112.19V112.2ZM223.18 113.03L224.18 114.77C227.288 113.354 230.61 112.466 234.01 112.14V110.13C230.26 110.468 226.597 111.449 223.18 113.03ZM218.65 113.2L221.65 118.4C217.91 120.74 214.75 123.9 212.41 127.64L207.21 124.64C210.083 119.99 214 116.073 218.65 113.2ZM217.98 116.04C214.906 118.214 212.224 120.896 210.05 123.97L211.79 124.97C213.779 122.192 216.212 119.759 218.99 117.77L217.98 116.04ZM206.21 126.37H206.2L211.4 129.37C209.316 133.264 208.157 137.586 208.01 142H202.01C202.163 136.532 203.602 131.178 206.21 126.37ZM207.04 129.17C205.459 132.587 204.478 136.25 204.14 140H206.15C206.476 136.6 207.364 133.278 208.78 130.17L207.04 129.17ZM202.02 144H208.03C208.18 148.41 209.33 152.73 211.41 156.63L206.21 159.63C203.605 154.821 202.17 149.467 202.02 144ZM204.14 146C204.477 149.753 205.458 153.42 207.04 156.84L208.78 155.84C207.363 152.729 206.474 149.403 206.15 146H204.14ZM207.21 161.36L212.41 158.36C214.75 162.1 217.91 165.26 221.65 167.6L218.65 172.8C214 169.927 210.083 166.01 207.21 161.36ZM210.05 162.03C212.224 165.104 214.906 167.786 217.98 169.96L218.98 168.22C216.202 166.231 213.769 163.798 211.78 161.02L210.05 162.03ZM220.38 173.8V173.81L223.38 168.61C227.275 170.692 231.596 171.852 236.01 172V178C230.542 177.847 225.188 176.408 220.38 173.8ZM223.18 172.97C226.597 174.551 230.26 175.532 234.01 175.87V173.86C230.61 173.534 227.288 172.646 224.18 171.23L223.18 172.97ZM238.01 177.99V171.98C242.42 171.83 246.74 170.68 250.64 168.6L253.64 173.8C248.831 176.405 243.477 177.84 238.01 177.99ZM240.01 175.87C243.763 175.533 247.43 174.552 250.85 172.97L249.85 171.23C246.739 172.647 243.413 173.536 240.01 173.86V175.87ZM255.37 172.8L252.37 167.6C256.11 165.26 259.27 162.1 261.61 158.36L266.81 161.36C263.937 166.01 260.02 169.927 255.37 172.8ZM256.04 169.96C259.114 167.786 261.796 165.104 263.97 162.03L262.23 161.03C260.241 163.808 257.808 166.241 255.03 168.23L256.04 169.96ZM267.81 159.63H267.82L262.62 156.63C264.702 152.735 265.862 148.414 266.01 144H272.01C271.857 149.468 270.418 154.822 267.81 159.63ZM266.98 156.83C268.561 153.413 269.542 149.75 269.88 146H267.87C267.544 149.4 266.656 152.722 265.24 155.83L266.98 156.83ZM272 142H265.99C265.845 137.587 264.688 133.266 262.61 129.37L267.81 126.37C270.415 131.179 271.85 136.533 272 142ZM269.88 140C269.543 136.247 268.562 132.58 266.98 129.16L265.24 130.16C266.657 133.271 267.546 136.597 267.87 140H269.88ZM266.81 124.64L261.61 127.64C259.27 123.9 256.11 120.74 252.37 118.4L255.37 113.2C260.02 116.073 263.937 119.99 266.81 124.64ZM263.97 123.97C261.796 120.896 259.114 118.214 256.04 116.04L255.04 117.78C257.818 119.769 260.251 122.202 262.24 124.98L263.97 123.97ZM238.01 108C243.477 108.15 248.831 109.585 253.64 112.19L250.64 117.39C246.744 115.312 242.423 114.155 238.01 114.01V108ZM250.85 113.02C247.43 111.438 243.763 110.457 240.01 110.12V112.13C243.41 112.456 246.732 113.344 249.84 114.76L250.84 113.02H250.85ZM237.01 156C233.562 156 230.256 154.63 227.818 152.192C225.38 149.754 224.01 146.448 224.01 143C224.01 139.552 225.38 136.246 227.818 133.808C230.256 131.37 233.562 130 237.01 130C240.458 130 243.764 131.37 246.202 133.808C248.64 136.246 250.01 139.552 250.01 143C250.01 146.448 248.64 149.754 246.202 152.192C243.764 154.63 240.458 156 237.01 156ZM237.01 154C239.927 154 242.725 152.841 244.788 150.778C246.851 148.715 248.01 145.917 248.01 143C248.01 140.083 246.851 137.285 244.788 135.222C242.725 133.159 239.927 132 237.01 132C234.093 132 231.295 133.159 229.232 135.222C227.169 137.285 226.01 140.083 226.01 143C226.01 145.917 227.169 148.715 229.232 150.778C231.295 152.841 234.093 154 237.01 154ZM137.55 0H194.47L193.73 1.03C194.3 1.73 194.85 2.43 195.37 3.17L203.12 0.27L205.12 3.73L198.74 8.98C199.11 9.8 199.46 10.63 199.77 11.48L207.99 10.68L209.03 14.54L201.51 17.97C201.66 18.85 201.77 19.74 201.86 20.64L210.01 22V26L201.86 27.36C201.77 28.26 201.66 29.16 201.51 30.03L209.03 33.46L207.99 37.32L199.77 36.52C199.46 37.37 199.11 38.2 198.74 39.02L205.12 44.27L203.12 47.73L195.37 44.83C194.85 45.57 194.3 46.28 193.73 46.97L198.53 53.7L195.71 56.53L188.98 51.73C188.28 52.29 187.58 52.84 186.84 53.36L189.74 61.11L186.28 63.11L181.03 56.73C180.21 57.1 179.38 57.45 178.53 57.76L179.33 65.98L175.47 67.02L172.04 59.5C171.16 59.65 170.27 59.76 169.37 59.85L168.01 68H164.01L162.65 59.85C161.75 59.76 160.85 59.65 159.98 59.5L156.55 67.02L152.69 65.98L153.49 57.76C152.64 57.45 151.81 57.1 150.99 56.73L145.74 63.11L142.28 61.11L145.18 53.36C144.447 52.8401 143.733 52.2931 143.04 51.72L136.31 56.52L133.48 53.7L138.28 46.97C137.72 46.27 137.17 45.57 136.65 44.83L128.9 47.73L126.9 44.27L133.28 39.02C132.91 38.2 132.56 37.37 132.25 36.52L124.03 37.32L122.99 33.46L130.51 30.03C130.36 29.15 130.25 28.26 130.16 27.36L122.01 26V22L130.16 20.64C130.25 19.74 130.36 18.84 130.51 17.97L122.99 14.54L124.03 10.68L132.25 11.48C132.56 10.63 132.91 9.8 133.28 8.98L126.9 3.73L128.9 0.27L136.65 3.17C137.17 2.43 137.72 1.72 138.29 1.03L137.55 0ZM139.98 0L140.81 1.17C139.566 2.54253 138.435 4.01406 137.43 5.57L129.8 2.71L129.47 3.29L135.76 8.47C134.911 10.1154 134.199 11.8279 133.63 13.59L125.53 12.81L125.35 13.45L132.77 16.82C132.381 18.6307 132.14 20.4701 132.05 22.32L124.01 23.68V24.34L132.05 25.68C132.15 27.56 132.38 29.4 132.77 31.18L125.35 34.56L125.53 35.2L133.63 34.42C134.199 36.182 134.911 37.8944 135.76 39.54L129.47 44.72L129.8 45.3L137.43 42.44C138.43 44 139.57 45.47 140.81 46.84L136.08 53.47L136.55 53.94L143.18 49.21C144.553 50.4542 146.024 51.5846 147.58 52.59L144.72 60.22L145.3 60.55L150.48 54.26C152.11 55.1 153.83 55.82 155.6 56.39L154.82 64.49L155.46 64.67L158.83 57.25C160.62 57.64 162.46 57.88 164.33 57.97L165.68 66.01H166.34L167.68 57.97C169.56 57.87 171.4 57.64 173.18 57.25L176.56 64.67L177.2 64.49L176.42 56.39C178.182 55.8211 179.894 55.1087 181.54 54.26L186.72 60.55L187.3 60.22L184.44 52.59C186 51.59 187.47 50.45 188.84 49.21L195.47 53.94L195.94 53.47L191.21 46.84C192.454 45.4675 193.585 43.9959 194.59 42.44L202.22 45.3L202.55 44.72L196.26 39.54C197.109 37.8946 197.821 36.1821 198.39 34.42L206.49 35.2L206.67 34.56L199.25 31.19C199.64 29.4 199.88 27.56 199.97 25.69L208.01 24.34V23.68L199.97 22.34C199.87 20.46 199.64 18.62 199.25 16.84L206.67 13.46L206.49 12.82L198.39 13.6C197.821 11.8379 197.109 10.1254 196.26 8.48L202.55 3.3L202.22 2.72L194.59 5.58C193.59 4.02 192.45 2.55 191.21 1.18L192.04 0.01H139.98V0ZM137.16 27H151.31C151.9 29.8816 153.324 32.5264 155.404 34.6063C157.484 36.6862 160.128 38.1097 163.01 38.7V52.85C156.39 52.1607 150.208 49.2158 145.501 44.5091C140.794 39.8025 137.849 33.6204 137.16 27ZM149.73 0H163.01V9.3C160.128 9.89033 157.484 11.3138 155.404 13.3937C153.324 15.4736 151.9 18.1184 151.31 21H137.16C137.597 16.7948 138.949 12.7361 141.12 9.10846C143.292 5.48081 146.23 2.37201 149.73 0ZM169.01 52.85V38.7C171.892 38.1097 174.536 36.6862 176.616 34.6063C178.696 32.5264 180.12 29.8816 180.71 27H194.86C194.171 33.6204 191.226 39.8025 186.519 44.5091C181.812 49.2158 175.63 52.1607 169.01 52.85ZM182.29 0C185.79 2.37201 188.728 5.48081 190.9 9.10846C193.071 12.7361 194.423 16.7948 194.86 21H180.71C180.12 18.1184 178.696 15.4736 176.616 13.3937C174.536 11.3138 171.892 9.89033 169.01 9.3V0H182.29ZM139.47 29C140.479 34.3395 143.074 39.2509 146.917 43.0933C150.759 46.9357 155.67 49.5308 161.01 50.54V40.25C158.361 39.4315 155.952 37.979 153.991 36.0186C152.031 34.0581 150.578 31.6489 149.76 29H139.47ZM153.63 0C149.982 1.88417 146.811 4.57427 144.358 7.8663C141.904 11.1583 140.233 14.9658 139.47 19H149.76C150.578 16.3511 152.031 13.9419 153.991 11.9814C155.952 10.021 158.361 8.56849 161.01 7.75V0H153.63ZM171.01 50.54C176.349 49.5308 181.261 46.9357 185.103 43.0933C188.946 39.2509 191.541 34.3395 192.55 29H182.26C181.442 31.6489 179.989 34.0581 178.029 36.0186C176.068 37.979 173.659 39.4315 171.01 40.25V50.54ZM178.39 0H171.01V7.75C173.659 8.56849 176.068 10.021 178.029 11.9814C179.989 13.9419 181.442 16.3511 182.26 19H192.55C191.787 14.9658 190.116 11.1583 187.662 7.8663C185.209 4.57427 182.038 1.88417 178.39 0ZM166.01 34C163.358 34 160.814 32.9464 158.939 31.0711C157.064 29.1957 156.01 26.6522 156.01 24C156.01 21.3478 157.064 18.8043 158.939 16.9289C160.814 15.0536 163.358 14 166.01 14C168.662 14 171.206 15.0536 173.081 16.9289C174.956 18.8043 176.01 21.3478 176.01 24C176.01 26.6522 174.956 29.1957 173.081 31.0711C171.206 32.9464 168.662 34 166.01 34ZM166.01 32C168.132 32 170.167 31.1571 171.667 29.6569C173.167 28.1566 174.01 26.1217 174.01 24C174.01 21.8783 173.167 19.8434 171.667 18.3431C170.167 16.8429 168.132 16 166.01 16C163.888 16 161.853 16.8429 160.353 18.3431C158.853 19.8434 158.01 21.8783 158.01 24C158.01 26.1217 158.853 28.1566 160.353 29.6569C161.853 31.1571 163.888 32 166.01 32ZM126.5 208.15L115.83 200.2L121.83 189.8L134.06 195.07C136.499 192.894 139.358 191.24 142.46 190.21L144.01 177H156.01L157.56 190.21C160.662 191.24 163.521 192.894 165.96 195.07L178.19 189.8L184.19 200.2L173.52 208.15C174.18 211.35 174.18 214.65 173.52 217.85L184.19 225.8L178.19 236.2L165.96 230.93C163.521 233.106 160.662 234.76 157.56 235.79L156.01 249H144.01L142.46 235.79C139.358 234.76 136.499 233.106 134.06 230.93L121.83 236.2L115.83 225.8L126.5 217.85C125.843 214.65 125.843 211.35 126.5 208.15ZM155.75 191.75L154.25 179H145.77L144.27 191.76C140.52 192.76 137.17 194.75 134.48 197.41L122.68 192.33L118.45 199.67L128.75 207.35C127.77 211.05 127.77 214.95 128.75 218.65L118.45 226.33L122.68 233.67L134.48 228.59C137.201 231.292 140.578 233.239 144.28 234.24L145.78 247H154.25L155.75 234.24C159.5 233.24 162.85 231.25 165.54 228.59L177.34 233.67L181.57 226.33L171.27 218.65C172.25 214.95 172.25 211.05 171.27 207.35L181.57 199.67L177.34 192.33L165.54 197.41C162.822 194.704 159.444 192.756 155.74 191.76L155.75 191.75ZM150.01 225C146.827 225 143.775 223.736 141.525 221.485C139.274 219.235 138.01 216.183 138.01 213C138.01 209.817 139.274 206.765 141.525 204.515C143.775 202.264 146.827 201 150.01 201C153.193 201 156.245 202.264 158.495 204.515C160.746 206.765 162.01 209.817 162.01 213C162.01 216.183 160.746 219.235 158.495 221.485C156.245 223.736 153.193 225 150.01 225ZM150.01 223C152.662 223 155.206 221.946 157.081 220.071C158.956 218.196 160.01 215.652 160.01 213C160.01 210.348 158.956 207.804 157.081 205.929C155.206 204.054 152.662 203 150.01 203C147.358 203 144.814 204.054 142.939 205.929C141.064 207.804 140.01 210.348 140.01 213C140.01 215.652 141.064 218.196 142.939 220.071C144.814 221.946 147.358 223 150.01 223ZM153.54 290.72L157.8 290.79L158.31 292.72L154.66 294.91C154.77 295.54 154.86 296.18 154.91 296.83L159.01 298V300L154.91 301.17C154.86 301.82 154.77 302.46 154.66 303.09L158.31 305.29L157.8 307.21L153.54 307.28C153.32 307.89 153.07 308.49 152.8 309.08L155.76 312.13L154.76 313.87L150.63 312.83C150.257 313.359 149.864 313.873 149.45 314.37L151.52 318.09L150.1 319.51L146.38 317.44C145.88 317.85 145.37 318.24 144.84 318.62L145.88 322.75L144.14 323.75L141.09 320.79C140.5 321.06 139.9 321.31 139.29 321.53L139.22 325.79L137.29 326.3L135.1 322.65C134.47 322.76 133.83 322.85 133.18 322.9L132.01 327H130.01L128.84 322.9C128.19 322.85 127.55 322.76 126.92 322.65L124.72 326.3L122.8 325.79L122.73 321.53C122.12 321.31 121.52 321.06 120.93 320.79L117.88 323.75L116.14 322.75L117.18 318.62C116.651 318.247 116.137 317.854 115.64 317.44L111.92 319.51L110.5 318.09L112.57 314.37C112.16 313.87 111.77 313.36 111.39 312.83L107.26 313.87L106.26 312.13L109.22 309.08C108.95 308.49 108.7 307.89 108.48 307.28L104.22 307.21L103.71 305.28L107.36 303.09C107.25 302.46 107.16 301.82 107.11 301.17L103.01 300V298L107.11 296.83C107.16 296.18 107.25 295.54 107.36 294.91L103.71 292.71L104.22 290.79L108.48 290.72C108.7 290.11 108.95 289.51 109.22 288.92L106.26 285.87L107.26 284.13L111.39 285.17C111.77 284.64 112.16 284.13 112.57 283.63L110.5 279.91L111.92 278.49L115.64 280.56C116.14 280.15 116.65 279.76 117.18 279.38L116.14 275.25L117.88 274.25L120.93 277.21C121.52 276.94 122.12 276.69 122.73 276.47L122.8 272.21L124.73 271.7L126.92 275.35C127.55 275.24 128.19 275.15 128.84 275.1L130.01 271H132.01L133.18 275.1C133.83 275.15 134.47 275.24 135.1 275.35L137.3 271.7L139.22 272.21L139.29 276.47C139.9 276.69 140.5 276.94 141.09 277.21L144.14 274.25L145.88 275.25L144.84 279.38C145.37 279.76 145.88 280.15 146.38 280.56L150.1 278.49L151.52 279.91L149.45 283.63C149.86 284.13 150.25 284.64 150.63 285.17L154.76 284.13L155.76 285.87L152.8 288.92C153.07 289.51 153.32 290.11 153.54 290.72ZM109.01 299C109.01 304.835 111.328 310.431 115.454 314.556C119.579 318.682 125.175 321 131.01 321C136.845 321 142.441 318.682 146.566 314.556C150.692 310.431 153.01 304.835 153.01 299C153.01 293.165 150.692 287.569 146.566 283.444C142.441 279.318 136.845 277 131.01 277C125.175 277 119.579 279.318 115.454 283.444C111.328 287.569 109.01 293.165 109.01 299ZM136.12 288.14L133.12 293.36C131.763 292.851 130.267 292.851 128.91 293.36L125.9 288.14C127.498 287.384 129.243 286.992 131.01 286.992C132.777 286.992 134.522 287.384 136.12 288.14ZM137.86 289.14C139.31 290.15 140.519 291.468 141.401 293C142.282 294.531 142.815 296.239 142.96 298H136.95C136.711 296.573 135.965 295.281 134.85 294.36L137.85 289.14H137.86ZM124.16 289.14L127.18 294.36C126.065 295.281 125.319 296.573 125.08 298H119.05C119.196 296.238 119.73 294.53 120.614 292.998C121.497 291.467 122.708 290.149 124.16 289.14ZM119.06 300H125.07C125.309 301.427 126.055 302.719 127.17 303.64L124.17 308.86C122.716 307.852 121.503 306.535 120.618 305.003C119.733 303.471 119.198 301.763 119.05 300H119.06ZM125.9 309.86L128.9 304.64C130.257 305.149 131.753 305.149 133.11 304.64L136.12 309.86C134.522 310.616 132.777 311.008 131.01 311.008C129.243 311.008 127.498 310.616 125.9 309.86ZM137.86 308.86L134.84 303.64C135.955 302.719 136.701 301.427 136.94 300H142.97C142.824 301.762 142.29 303.47 141.406 305.002C140.523 306.533 139.312 307.851 137.86 308.86ZM133.18 289.24C131.751 288.924 130.269 288.924 128.84 289.24L129.89 291.06C130.63 290.96 131.39 290.96 132.13 291.06L133.18 289.24ZM138.38 292.24L137.33 294.06C137.79 294.65 138.17 295.3 138.45 296H140.55C140.111 294.603 139.37 293.319 138.38 292.24ZM123.64 292.24C122.65 293.319 121.909 294.603 121.47 296H123.57C123.85 295.3 124.23 294.65 124.69 294.06L123.64 292.24ZM121.47 302C121.909 303.397 122.65 304.681 123.64 305.76L124.69 303.94C124.228 303.349 123.851 302.696 123.57 302H121.47ZM128.84 308.76C130.27 309.08 131.75 309.08 133.18 308.76L132.13 306.94C131.39 307.04 130.63 307.04 129.89 306.94L128.84 308.76ZM138.38 305.76C139.37 304.681 140.111 303.397 140.55 302H138.45C138.17 302.7 137.79 303.35 137.33 303.94L138.38 305.76ZM127.01 299C127.01 297.939 127.431 296.922 128.182 296.172C128.932 295.421 129.949 295 131.01 295C132.071 295 133.088 295.421 133.838 296.172C134.589 296.922 135.01 297.939 135.01 299C135.01 300.061 134.589 301.078 133.838 301.828C133.088 302.579 132.071 303 131.01 303C129.949 303 128.932 302.579 128.182 301.828C127.431 301.078 127.01 300.061 127.01 299ZM129.01 299C129.01 299.53 129.221 300.039 129.596 300.414C129.971 300.789 130.48 301 131.01 301C131.54 301 132.049 300.789 132.424 300.414C132.799 300.039 133.01 299.53 133.01 299C133.01 298.47 132.799 297.961 132.424 297.586C132.049 297.211 131.54 297 131.01 297C130.48 297 129.971 297.211 129.596 297.586C129.221 297.961 129.01 298.47 129.01 299ZM144.01 299C144.01 297.939 144.431 296.922 145.182 296.172C145.932 295.421 146.949 295 148.01 295C149.071 295 150.088 295.421 150.838 296.172C151.589 296.922 152.01 297.939 152.01 299C152.01 300.061 151.589 301.078 150.838 301.828C150.088 302.579 149.071 303 148.01 303C146.949 303 145.932 302.579 145.182 301.828C144.431 301.078 144.01 300.061 144.01 299ZM137.51 310.26C137.965 309.997 138.467 309.827 138.988 309.758C139.509 309.69 140.038 309.725 140.546 309.861C141.053 309.997 141.529 310.231 141.946 310.551C142.363 310.871 142.712 311.27 142.975 311.725C143.238 312.18 143.408 312.682 143.477 313.203C143.545 313.724 143.51 314.253 143.374 314.761C143.238 315.268 143.004 315.744 142.684 316.161C142.364 316.578 141.965 316.927 141.51 317.19C140.591 317.72 139.499 317.864 138.474 317.589C137.449 317.315 136.575 316.644 136.045 315.725C135.515 314.806 135.371 313.714 135.646 312.689C135.92 311.664 136.591 310.79 137.51 310.26ZM124.51 310.26C124.965 310.523 125.364 310.872 125.684 311.289C126.004 311.706 126.238 312.182 126.374 312.689C126.51 313.197 126.545 313.726 126.477 314.247C126.408 314.768 126.238 315.27 125.975 315.725C125.712 316.18 125.363 316.579 124.946 316.899C124.529 317.219 124.053 317.453 123.546 317.589C123.038 317.725 122.509 317.76 121.988 317.692C121.467 317.623 120.965 317.453 120.51 317.19C119.591 316.66 118.92 315.786 118.646 314.761C118.371 313.736 118.515 312.644 119.045 311.725C119.575 310.806 120.449 310.135 121.474 309.861C122.499 309.586 123.591 309.73 124.51 310.26ZM118.01 299C118.01 300.061 117.589 301.078 116.838 301.828C116.088 302.579 115.071 303 114.01 303C112.949 303 111.932 302.579 111.182 301.828C110.431 301.078 110.01 300.061 110.01 299C110.01 297.939 110.431 296.922 111.182 296.172C111.932 295.421 112.949 295 114.01 295C115.071 295 116.088 295.421 116.838 296.172C117.589 296.922 118.01 297.939 118.01 299ZM124.51 287.74C123.591 288.27 122.499 288.414 121.474 288.139C120.449 287.865 119.575 287.194 119.045 286.275C118.515 285.356 118.371 284.264 118.646 283.239C118.92 282.214 119.591 281.34 120.51 280.81C120.965 280.547 121.467 280.377 121.988 280.308C122.509 280.24 123.038 280.275 123.546 280.411C124.053 280.547 124.529 280.781 124.946 281.101C125.363 281.421 125.712 281.82 125.975 282.275C126.238 282.73 126.408 283.232 126.477 283.753C126.545 284.274 126.51 284.803 126.374 285.311C126.238 285.818 126.004 286.294 125.684 286.711C125.364 287.128 124.965 287.477 124.51 287.74ZM137.51 287.74C137.055 287.477 136.656 287.128 136.336 286.711C136.016 286.294 135.782 285.818 135.646 285.311C135.51 284.803 135.475 284.274 135.543 283.753C135.612 283.232 135.782 282.73 136.045 282.275C136.308 281.82 136.657 281.421 137.074 281.101C137.491 280.781 137.967 280.547 138.474 280.411C138.982 280.275 139.511 280.24 140.032 280.308C140.553 280.377 141.055 280.547 141.51 280.81C142.429 281.34 143.1 282.214 143.374 283.239C143.649 284.264 143.505 285.356 142.975 286.275C142.445 287.194 141.571 287.865 140.546 288.139C139.521 288.414 138.429 288.27 137.51 287.74ZM146.01 299C146.01 299.53 146.221 300.039 146.596 300.414C146.971 300.789 147.48 301 148.01 301C148.54 301 149.049 300.789 149.424 300.414C149.799 300.039 150.01 299.53 150.01 299C150.01 298.47 149.799 297.961 149.424 297.586C149.049 297.211 148.54 297 148.01 297C147.48 297 146.971 297.211 146.596 297.586C146.221 297.961 146.01 298.47 146.01 299ZM138.51 311.99C138.027 312.21 137.652 312.613 137.466 313.11C137.28 313.607 137.3 314.157 137.52 314.64C137.74 315.123 138.143 315.498 138.64 315.684C139.137 315.869 139.687 315.85 140.17 315.63C140.409 315.521 140.624 315.366 140.803 315.174C140.982 314.982 141.122 314.756 141.214 314.51C141.306 314.264 141.348 314.002 141.339 313.74C141.33 313.477 141.269 313.219 141.16 312.98C141.051 312.741 140.896 312.526 140.704 312.347C140.512 312.168 140.286 312.028 140.04 311.936C139.794 311.844 139.532 311.802 139.27 311.811C139.007 311.82 138.749 311.881 138.51 311.99ZM123.51 311.99C123.062 311.705 122.519 311.61 122 311.725C121.482 311.84 121.03 312.157 120.745 312.605C120.46 313.053 120.365 313.596 120.48 314.115C120.595 314.633 120.912 315.085 121.36 315.37C121.582 315.511 121.83 315.607 122.089 315.653C122.348 315.698 122.613 315.692 122.87 315.635C123.127 315.578 123.37 315.471 123.585 315.32C123.8 315.169 123.984 314.977 124.125 314.755C124.266 314.533 124.362 314.285 124.408 314.026C124.453 313.767 124.447 313.502 124.39 313.245C124.333 312.988 124.226 312.745 124.075 312.53C123.924 312.315 123.732 312.131 123.51 311.99ZM116.01 299C116.01 298.47 115.799 297.961 115.424 297.586C115.049 297.211 114.54 297 114.01 297C113.48 297 112.971 297.211 112.596 297.586C112.221 297.961 112.01 298.47 112.01 299C112.01 299.53 112.221 300.039 112.596 300.414C112.971 300.789 113.48 301 114.01 301C114.54 301 115.049 300.789 115.424 300.414C115.799 300.039 116.01 299.53 116.01 299ZM123.51 286.01C123.749 285.901 123.964 285.746 124.143 285.554C124.322 285.362 124.462 285.136 124.554 284.89C124.646 284.644 124.688 284.382 124.679 284.12C124.67 283.857 124.609 283.599 124.5 283.36C124.391 283.121 124.236 282.906 124.044 282.727C123.852 282.548 123.626 282.408 123.38 282.316C123.134 282.224 122.872 282.182 122.61 282.191C122.347 282.2 122.089 282.261 121.85 282.37C121.367 282.59 120.992 282.993 120.806 283.49C120.621 283.987 120.64 284.537 120.86 285.02C121.08 285.503 121.483 285.878 121.98 286.064C122.477 286.25 123.027 286.23 123.51 286.01ZM138.51 286.01C138.732 286.151 138.979 286.247 139.239 286.293C139.498 286.338 139.763 286.332 140.02 286.275C140.277 286.218 140.52 286.111 140.735 285.96C140.95 285.809 141.134 285.617 141.275 285.395C141.416 285.173 141.512 284.926 141.558 284.666C141.603 284.407 141.597 284.142 141.54 283.885C141.483 283.628 141.376 283.385 141.225 283.17C141.074 282.955 140.882 282.771 140.66 282.63C140.212 282.345 139.669 282.25 139.15 282.365C138.632 282.48 138.18 282.797 137.895 283.245C137.61 283.693 137.515 284.236 137.63 284.755C137.745 285.273 138.062 285.725 138.51 286.01ZM242.31 224.31L241.51 216.09L247.31 214.54L250.73 222.06C252.99 221.63 255.3 221.32 257.65 221.16L259.01 213H265.01L266.37 221.16C268.72 221.32 271.03 221.63 273.29 222.06L276.71 214.54L282.51 216.09L281.71 224.31C283.92 225.08 286.08 225.97 288.16 226.99L293.41 220.61L298.61 223.61L295.71 231.35C297.634 232.659 299.48 234.078 301.24 235.6L307.97 230.8L312.21 235.04L307.41 241.77C308.932 243.53 310.351 245.376 311.66 247.3L319.4 244.4L322.4 249.6L316.02 254.85C317.039 256.946 317.933 259.099 318.7 261.3L326.92 260.5L328.47 266.3L320.95 269.72C321.38 271.98 321.69 274.29 321.85 276.64L330.01 278V284L321.85 285.36C321.684 287.682 321.384 289.993 320.95 292.28L328.47 295.7L326.92 301.5L318.7 300.7C317.933 302.901 317.039 305.054 316.02 307.15L322.4 312.4L319.4 317.6L311.66 314.7C310.351 316.624 308.932 318.47 307.41 320.23L312.21 326.96L307.97 331.2L301.24 326.4C299.48 327.922 297.634 329.341 295.71 330.65L298.61 338.39L293.41 341.39L288.16 335.01C286.064 336.029 283.911 336.923 281.71 337.69L282.51 345.91L276.71 347.46L273.29 339.94C271.03 340.37 268.72 340.68 266.37 340.84L265.01 349H259.01L257.65 340.84C255.328 340.674 253.017 340.374 250.73 339.94L247.31 347.46L241.51 345.91L242.31 337.69C240.109 336.923 237.956 336.029 235.86 335.01L230.61 341.39L225.41 338.39L228.31 330.65C226.386 329.341 224.54 327.922 222.78 326.4L216.05 331.2L211.81 326.96L216.61 320.23C215.088 318.47 213.669 316.624 212.36 314.7L204.62 317.6L201.62 312.4L208 307.15C206.981 305.054 206.087 302.901 205.32 300.7L197.1 301.5L195.55 295.7L203.07 292.28C202.64 289.99 202.34 287.68 202.17 285.36L194.01 284V278L202.17 276.64C202.33 274.29 202.64 271.98 203.07 269.72L195.55 266.3L197.1 260.5L205.32 261.3C206.09 259.1 206.98 256.95 208 254.85L201.62 249.6L204.62 244.4L212.36 247.3C213.669 245.376 215.088 243.53 216.61 241.77L211.81 235.04L216.05 230.8L222.78 235.6C224.54 234.078 226.386 232.659 228.31 231.35L225.41 223.61L230.61 220.61L235.86 226.99C237.956 225.971 240.109 225.077 242.31 224.31ZM244.43 225.71C241.28 226.71 238.24 227.98 235.35 229.48L230.16 223.18L227.86 224.51L230.72 232.16C227.96 233.93 225.354 235.931 222.93 238.14L216.28 233.39L214.4 235.27L219.15 241.92C216.941 244.344 214.94 246.95 213.17 249.71L205.52 246.85L204.19 249.15L210.49 254.35C208.978 257.261 207.716 260.295 206.72 263.42L198.6 262.63L197.91 265.21L205.34 268.59C204.643 271.792 204.218 275.047 204.07 278.32L196.01 279.67V282.33L204.07 283.68C204.22 287 204.65 290.26 205.34 293.41L197.91 296.79L198.61 299.37L206.72 298.58C207.72 301.73 208.99 304.77 210.49 307.66L204.19 312.85L205.52 315.15L213.17 312.29C214.94 315.05 216.941 317.656 219.15 320.08L214.4 326.73L216.28 328.61L222.93 323.86C225.36 326.062 227.965 328.062 230.72 329.84L227.86 337.49L230.16 338.82L235.36 332.52C238.269 334.035 241.304 335.297 244.43 336.29L243.64 344.41L246.22 345.1L249.6 337.67C252.75 338.36 256 338.79 259.33 338.94L260.68 347H263.34L264.69 338.94C268.01 338.79 271.27 338.36 274.42 337.67L277.8 345.1L280.38 344.4L279.59 336.29C282.74 335.29 285.78 334.02 288.67 332.52L293.86 338.82L296.16 337.49L293.3 329.84C296.06 328.07 298.666 326.069 301.09 323.86L307.74 328.61L309.62 326.73L304.87 320.08C307.072 317.65 309.072 315.045 310.85 312.29L318.5 315.15L319.83 312.85L313.53 307.65C315.045 304.741 316.307 301.706 317.3 298.58L325.42 299.37L326.11 296.79L318.68 293.41C319.377 290.208 319.802 286.953 319.95 283.68L328.01 282.33V279.67L319.95 278.32C319.802 275.047 319.377 271.792 318.68 268.59L326.11 265.21L325.41 262.63L317.3 263.42C316.3 260.27 315.03 257.23 313.53 254.34L319.83 249.15L318.5 246.85L310.85 249.71C309.08 246.95 307.079 244.344 304.87 241.92L309.62 235.27L307.74 233.39L301.09 238.14C298.666 235.931 296.06 233.93 293.3 232.16L296.16 224.51L293.86 223.18L288.66 229.48C285.749 227.968 282.715 226.706 279.59 225.71L280.38 217.59L277.8 216.9L274.42 224.33C271.218 223.633 267.963 223.208 264.69 223.06L263.34 215H260.68L259.33 223.06C256.01 223.21 252.75 223.64 249.6 224.33L246.22 216.9L243.64 217.6L244.43 225.71ZM249.01 275.81C247.673 279.144 247.673 282.866 249.01 286.2L215.13 305.75C211.098 298.124 208.996 289.626 209.01 281C209.01 272.06 211.22 263.63 215.13 256.25L249.01 275.8V275.81ZM251.01 272.34L217.14 252.78C221.731 245.477 228.036 239.406 235.508 235.095C242.979 230.783 251.39 228.361 260.01 228.04V267.14C256.454 267.653 253.231 269.515 251.01 272.34ZM251.01 289.66C253.231 292.485 256.454 294.347 260.01 294.86V333.96C251.39 333.639 242.979 331.217 235.508 326.905C228.036 322.594 221.731 316.523 217.14 309.22L251.01 289.66ZM264.01 294.86C267.566 294.347 270.789 292.485 273.01 289.66L306.88 309.22C302.289 316.523 295.984 322.594 288.512 326.905C281.041 331.217 272.63 333.639 264.01 333.96V294.86ZM275.01 286.2C276.35 282.863 276.35 279.137 275.01 275.8L308.89 256.25C312.922 263.876 315.024 272.374 315.01 281C315.01 289.94 312.8 298.37 308.89 305.75L275.01 286.2ZM273.01 272.34C270.789 269.515 267.566 267.653 264.01 267.14V228.04C272.63 228.361 281.041 230.783 288.512 235.095C295.984 239.406 302.289 245.477 306.88 252.78L273.01 272.34ZM215.97 259.04C212.695 265.897 211 273.401 211.01 281C211 288.599 212.695 296.103 215.97 302.96L246.59 285.28C245.81 282.48 245.81 279.52 246.59 276.72L215.97 259.04ZM219.97 252.11L250.59 269.79C252.63 267.715 255.194 266.232 258.01 265.5V230.15C250.433 230.742 243.085 233.022 236.503 236.821C229.921 240.621 224.272 245.845 219.97 252.11ZM219.97 309.89C224.272 316.155 229.921 321.379 236.503 325.179C243.085 328.978 250.433 331.258 258.01 331.85V296.5C255.192 295.772 252.627 294.289 250.59 292.21L219.97 309.89ZM266.01 331.85C273.587 331.258 280.935 328.978 287.517 325.179C294.099 321.379 299.748 316.155 304.05 309.89L273.43 292.21C271.39 294.285 268.826 295.768 266.01 296.5V331.85ZM308.05 302.96C311.325 296.103 313.02 288.599 313.01 281C313.02 273.401 311.325 265.897 308.05 259.04L277.43 276.72C278.21 279.52 278.21 282.48 277.43 285.28L308.05 302.96ZM304.05 252.11C299.748 245.845 294.099 240.621 287.517 236.821C280.935 233.022 273.587 230.742 266.01 230.15V265.5C268.87 266.24 271.42 267.75 273.43 269.79L304.05 252.11ZM262.01 290C259.623 290 257.334 289.052 255.646 287.364C253.958 285.676 253.01 283.387 253.01 281C253.01 278.613 253.958 276.324 255.646 274.636C257.334 272.948 259.623 272 262.01 272C264.397 272 266.686 272.948 268.374 274.636C270.062 276.324 271.01 278.613 271.01 281C271.01 283.387 270.062 285.676 268.374 287.364C266.686 289.052 264.397 290 262.01 290ZM262.01 288C263.867 288 265.647 287.262 266.96 285.95C268.273 284.637 269.01 282.857 269.01 281C269.01 279.143 268.273 277.363 266.96 276.05C265.647 274.738 263.867 274 262.01 274C260.153 274 258.373 274.738 257.06 276.05C255.748 277.363 255.01 279.143 255.01 281C255.01 282.857 255.748 284.637 257.06 285.95C258.373 287.262 260.153 288 262.01 288ZM261.84 15.53L261.76 11.35L263.69 10.83L265.73 14.5C266.8 14.3 267.89 14.15 268.99 14.07L270.01 10H272.01L273.03 14.07C274.13 14.15 275.23 14.29 276.29 14.5L278.33 10.83L280.26 11.35L280.19 15.54C281.228 15.8978 282.243 16.3186 283.23 16.8L286.14 13.79L287.88 14.79L286.72 18.82C287.63 19.44 288.5 20.11 289.33 20.82L292.93 18.67L294.34 20.08L292.18 23.68C292.9 24.51 293.58 25.38 294.18 26.28L298.22 25.13L299.22 26.87L296.21 29.78C296.69 30.76 297.11 31.78 297.47 32.82L301.67 32.75L302.17 34.68L298.51 36.72C298.71 37.79 298.86 38.88 298.94 39.98L303.01 41V43L298.94 44.02C298.863 45.1144 298.72 46.2031 298.51 47.28L302.18 49.32L301.66 51.25L297.47 51.18C297.11 52.2173 296.69 53.2324 296.21 54.22L299.22 57.13L298.22 58.87L294.19 57.71C293.57 58.62 292.9 59.49 292.19 60.32L294.34 63.92L292.93 65.33L289.33 63.17C288.5 63.89 287.63 64.57 286.73 65.17L287.88 69.21L286.14 70.21L283.23 67.2C282.243 67.6814 281.228 68.1022 280.19 68.46L280.26 72.66L278.33 73.16L276.29 69.5C275.22 69.7 274.13 69.85 273.03 69.93L272.01 74H270.01L268.99 69.93C267.896 69.8533 266.807 69.7097 265.73 69.5L263.69 73.17L261.76 72.65L261.83 68.46C260.793 68.1004 259.778 67.6796 258.79 67.2L255.88 70.21L254.14 69.21L255.3 65.18C254.4 64.56 253.52 63.89 252.69 63.18L249.09 65.33L247.68 63.92L249.84 60.32C249.12 59.49 248.44 58.62 247.84 57.72L243.8 58.87L242.8 57.13L245.81 54.22C245.329 53.2332 244.908 52.218 244.55 51.18L240.35 51.25L239.85 49.32L243.51 47.28C243.31 46.21 243.16 45.12 243.08 44.02L239.01 43V41L243.08 39.98C243.16 38.88 243.3 37.78 243.51 36.72L239.84 34.68L240.36 32.75L244.55 32.82C244.908 31.782 245.329 30.7668 245.81 29.78L242.8 26.87L243.8 25.13L247.83 26.29C248.45 25.38 249.12 24.51 249.83 23.68L247.68 20.08L249.09 18.67L252.69 20.83C253.52 20.11 254.39 19.43 255.29 18.83L254.14 14.79L255.88 13.79L258.79 16.8C259.777 16.3186 260.792 15.8978 261.83 15.54L261.84 15.53ZM271.01 68C277.906 68 284.519 65.2607 289.395 60.3848C294.271 55.5088 297.01 48.8956 297.01 42C297.01 35.1044 294.271 28.4912 289.395 23.6152C284.519 18.7393 277.906 16 271.01 16C264.114 16 257.501 18.7393 252.625 23.6152C247.749 28.4912 245.01 35.1044 245.01 42C245.01 48.8956 247.749 55.5088 252.625 60.3848C257.501 65.2607 264.114 68 271.01 68ZM271.01 59C266.501 59 262.177 57.2089 258.989 54.0208C255.801 50.8327 254.01 46.5087 254.01 42C254.01 37.4913 255.801 33.1673 258.989 29.9792C262.177 26.7911 266.501 25 271.01 25C275.519 25 279.843 26.7911 283.031 29.9792C286.219 33.1673 288.01 37.4913 288.01 42C288.01 46.5087 286.219 50.8327 283.031 54.0208C279.843 57.2089 275.519 59 271.01 59ZM271.01 57C272.98 57 274.93 56.612 276.75 55.8582C278.57 55.1044 280.224 53.9995 281.617 52.6066C283.009 51.2137 284.114 49.5601 284.868 47.7402C285.622 45.9204 286.01 43.9698 286.01 42C286.01 40.0302 285.622 38.0796 284.868 36.2598C284.114 34.4399 283.009 32.7863 281.617 31.3934C280.224 30.0005 278.57 28.8956 276.75 28.1418C274.93 27.388 272.98 27 271.01 27C267.032 27 263.216 28.5804 260.403 31.3934C257.59 34.2064 256.01 38.0218 256.01 42C256.01 45.9782 257.59 49.7936 260.403 52.6066C263.216 55.4196 267.032 57 271.01 57ZM271.01 49C269.153 49 267.373 48.2625 266.06 46.9497C264.748 45.637 264.01 43.8565 264.01 42C264.01 40.1435 264.748 38.363 266.06 37.0503C267.373 35.7375 269.153 35 271.01 35C272.867 35 274.647 35.7375 275.96 37.0503C277.273 38.363 278.01 40.1435 278.01 42C278.01 43.8565 277.273 45.637 275.96 46.9497C274.647 48.2625 272.867 49 271.01 49ZM271.01 47C272.336 47 273.608 46.4732 274.546 45.5355C275.483 44.5979 276.01 43.3261 276.01 42C276.01 40.6739 275.483 39.4021 274.546 38.4645C273.608 37.5268 272.336 37 271.01 37C269.684 37 268.412 37.5268 267.474 38.4645C266.537 39.4021 266.01 40.6739 266.01 42C266.01 43.3261 266.537 44.5979 267.474 45.5355C268.412 46.4732 269.684 47 271.01 47ZM271.01 33C270.48 33 269.971 32.7893 269.596 32.4142C269.221 32.0391 269.01 31.5304 269.01 31C269.01 30.4696 269.221 29.9609 269.596 29.5858C269.971 29.2107 270.48 29 271.01 29C271.54 29 272.049 29.2107 272.424 29.5858C272.799 29.9609 273.01 30.4696 273.01 31C273.01 31.5304 272.799 32.0391 272.424 32.4142C272.049 32.7893 271.54 33 271.01 33ZM280.01 42C280.01 41.4696 280.221 40.9609 280.596 40.5858C280.971 40.2107 281.48 40 282.01 40C282.54 40 283.049 40.2107 283.424 40.5858C283.799 40.9609 284.01 41.4696 284.01 42C284.01 42.5304 283.799 43.0391 283.424 43.4142C283.049 43.7893 282.54 44 282.01 44C281.48 44 280.971 43.7893 280.596 43.4142C280.221 43.0391 280.01 42.5304 280.01 42ZM271.01 51C271.54 51 272.049 51.2107 272.424 51.5858C272.799 51.9609 273.01 52.4696 273.01 53C273.01 53.5304 272.799 54.0391 272.424 54.4142C272.049 54.7893 271.54 55 271.01 55C270.48 55 269.971 54.7893 269.596 54.4142C269.221 54.0391 269.01 53.5304 269.01 53C269.01 52.4696 269.221 51.9609 269.596 51.5858C269.971 51.2107 270.48 51 271.01 51ZM262.01 42C262.01 42.5304 261.799 43.0391 261.424 43.4142C261.049 43.7893 260.54 44 260.01 44C259.48 44 258.971 43.7893 258.596 43.4142C258.221 43.0391 258.01 42.5304 258.01 42C258.01 41.4696 258.221 40.9609 258.596 40.5858C258.971 40.2107 259.48 40 260.01 40C260.54 40 261.049 40.2107 261.424 40.5858C261.799 40.9609 262.01 41.4696 262.01 42ZM309.94 95.79L308.14 91.88L309.77 90.7L312.92 93.62C313.32 93.45 313.74 93.32 314.17 93.22L315.01 89H317.01L317.85 93.21C318.28 93.31 318.7 93.45 319.1 93.61L322.25 90.71L323.87 91.88L322.07 95.78C322.37 96.11 322.62 96.47 322.85 96.84L327.11 96.34L327.73 98.24L323.98 100.34C324.02 100.78 324.02 101.21 323.98 101.65L327.73 103.75L327.11 105.65L322.85 105.15C322.62 105.53 322.36 105.89 322.08 106.21L323.88 110.12L322.25 111.3L319.1 108.38C318.7 108.55 318.28 108.68 317.85 108.78L317.01 113H315.01L314.17 108.79C313.74 108.69 313.32 108.55 312.92 108.39L309.77 111.29L308.15 110.12L309.95 106.22C309.661 105.889 309.401 105.534 309.17 105.16L304.91 105.66L304.29 103.76L308.04 101.66C308.005 101.224 308.005 100.786 308.04 100.35L304.29 98.25L304.91 96.35L309.17 96.85C309.4 96.47 309.66 96.11 309.94 95.79ZM316.01 106C317.336 106 318.608 105.473 319.546 104.536C320.483 103.598 321.01 102.326 321.01 101C321.01 99.6739 320.483 98.4021 319.546 97.4645C318.608 96.5268 317.336 96 316.01 96C314.684 96 313.412 96.5268 312.474 97.4645C311.537 98.4021 311.01 99.6739 311.01 101C311.01 102.326 311.537 103.598 312.474 104.536C313.412 105.473 314.684 106 316.01 106ZM75.74 179.2L75.14 177.1L76.88 176.1L78.39 177.67C79.0678 177.41 79.772 177.226 80.49 177.12L81.01 175H83.01L83.54 177.12C84.26 177.22 84.96 177.42 85.63 177.67L87.14 176.11L88.88 177.11L88.28 179.21C88.84 179.66 89.35 180.17 89.8 180.73L91.9 180.13L92.9 181.87L91.34 183.38C91.59 184.05 91.78 184.75 91.89 185.48L94.01 186V188L91.89 188.53C91.7835 189.245 91.5991 189.945 91.34 190.62L92.9 192.13L91.9 193.87L89.8 193.27C89.3498 193.83 88.8402 194.34 88.28 194.79L88.88 196.89L87.14 197.89L85.63 196.33C84.96 196.58 84.26 196.77 83.53 196.88L83.01 199H81.01L80.48 196.88C79.77 196.78 79.06 196.58 78.39 196.33L76.88 197.89L75.14 196.89L75.74 194.79C75.1798 194.34 74.6702 193.83 74.22 193.27L72.12 193.87L71.12 192.13L72.68 190.62C72.4205 189.942 72.236 189.238 72.13 188.52L70.01 188V186L72.13 185.47C72.23 184.75 72.43 184.05 72.68 183.38L71.12 181.87L72.12 180.13L74.22 180.73C74.67 180.17 75.18 179.66 75.74 179.21V179.2ZM77.89 180.14C76.7669 180.816 75.8263 181.757 75.15 182.88L75.01 183.13C74.3515 184.314 74.0059 185.646 74.0059 187C74.0059 188.354 74.3515 189.686 75.01 190.87L75.15 191.12C75.8263 192.243 76.7669 193.184 77.89 193.86L78.14 194C79.3236 194.658 80.6556 195.004 82.01 195.004C83.3644 195.004 84.6964 194.658 85.88 194L86.13 193.86C87.2531 193.184 88.1937 192.243 88.87 191.12L89.01 190.87C89.6685 189.686 90.0141 188.354 90.0141 187C90.0141 185.646 89.6685 184.314 89.01 183.13L88.87 182.88C88.1937 181.757 87.2531 180.816 86.13 180.14L85.88 180C84.6964 179.342 83.3644 178.996 82.01 178.996C80.6556 178.996 79.3236 179.342 78.14 180L77.89 180.14ZM82.01 193C80.4187 193 78.8926 192.368 77.7674 191.243C76.6421 190.117 76.01 188.591 76.01 187C76.01 185.409 76.6421 183.883 77.7674 182.757C78.8926 181.632 80.4187 181 82.01 181C83.6013 181 85.1274 181.632 86.2526 182.757C87.3779 183.883 88.01 185.409 88.01 187C88.01 188.591 87.3779 190.117 86.2526 191.243C85.1274 192.368 83.6013 193 82.01 193ZM82.01 191C83.0709 191 84.0883 190.579 84.8384 189.828C85.5886 189.078 86.01 188.061 86.01 187C86.01 185.939 85.5886 184.922 84.8384 184.172C84.0883 183.421 83.0709 183 82.01 183C80.9491 183 79.9317 183.421 79.1816 184.172C78.4314 184.922 78.01 185.939 78.01 187C78.01 188.061 78.4314 189.078 79.1816 189.828C79.9317 190.579 80.9491 191 82.01 191ZM360.01 194.18L356.21 199.78L349.03 196.27L351.63 188.2C350.557 187.443 349.532 186.622 348.56 185.74L341.29 190.09L336.25 183.87L342.07 177.61C341.43 176.48 340.87 175.31 340.37 174.09L331.92 174.82L330.12 167.02L338.07 163.95C337.992 162.651 337.992 161.349 338.07 160.05L330.12 156.98L331.92 149.18L340.37 149.91C340.864 148.703 341.431 147.527 342.07 146.39L336.25 140.13L341.29 133.91L348.56 138.26C349.53 137.38 350.56 136.56 351.63 135.8L349.03 127.73L356.22 124.23L360.01 129.82V194.18ZM360.01 190.65V133.35L355.55 126.77L351.45 128.77L353.98 136.64C352.126 137.816 350.406 139.191 348.85 140.74L341.77 136.5L338.89 140.05L344.54 146.14C343.39 147.985 342.444 149.95 341.72 152L333.48 151.3L332.45 155.76L340.18 158.75C339.947 160.91 339.947 163.09 340.18 165.25L332.45 168.25L333.48 172.7L341.72 172C342.444 174.05 343.39 176.015 344.54 177.86L338.89 183.96L341.77 187.5L348.85 183.27C350.406 184.816 352.126 186.187 353.98 187.36L351.44 195.22L355.55 197.22L360.01 190.65ZM360.01 139.08V144.79L356.45 140.99C357.583 140.258 358.774 139.619 360.01 139.08ZM360.01 161.76L345.84 168.4C343.34 158.9 346.61 148.83 354.22 142.62L360.01 153.12V161.76ZM360.01 184.92C356.984 183.595 354.249 181.684 351.963 179.299C349.677 176.914 347.885 174.1 346.69 171.02L360.01 168.47V184.92ZM360.01 141.28L359.62 141.48L360.01 141.88V141.28ZM360.01 159.57V157.22L353.71 145.78C351.158 148.335 349.246 151.456 348.128 154.89C347.011 158.324 346.72 161.973 347.28 165.54L360.01 159.57ZM360.01 182.72V170.49L349.54 172.5C351.83 176.951 355.505 180.538 360.01 182.72ZM0.01 129.82L1.01 131.28C2.2579 130.916 3.52695 130.629 4.81 130.42L6.01 122H14.01L15.21 130.42C16.51 130.63 17.78 130.92 19.01 131.28L23.81 124.22L30.99 127.73L28.39 135.8C29.46 136.56 30.49 137.38 31.46 138.26L38.73 133.91L43.77 140.13L37.95 146.39C38.59 147.52 39.15 148.69 39.65 149.91L48.1 149.18L49.9 156.98L41.95 160.05C42.03 161.35 42.03 162.65 41.95 163.95L49.9 167.02L48.1 174.82L39.65 174.09C39.1523 175.295 38.5847 176.471 37.95 177.61L43.77 183.87L38.73 190.09L31.46 185.74C30.49 186.62 29.46 187.44 28.39 188.2L30.99 196.27L23.8 199.77L19.02 192.72C17.78 193.08 16.51 193.37 15.22 193.58L14.01 202H6.01L4.81 193.58C3.52695 193.371 2.2579 193.084 1.01 192.72L0.01 194.18V129.82ZM0.01 133.35V190.65L0.21 190.36C2.23 191.06 4.36 191.56 6.55 191.8L7.72 200H12.3L13.47 191.8C15.67 191.55 17.79 191.06 19.82 190.36L24.47 197.23L28.57 195.23L26.04 187.36C27.8942 186.184 29.6144 184.809 31.17 183.26L38.25 187.5L41.13 183.95L35.48 177.86C36.62 176.03 37.58 174.06 38.3 172L46.54 172.7L47.57 168.24L39.84 165.25C40.07 163.089 40.07 160.911 39.84 158.75L47.57 155.75L46.54 151.3L38.3 152C37.5761 149.95 36.6305 147.985 35.48 146.14L41.13 140.04L38.25 136.5L31.17 140.73C29.6139 139.184 27.8937 137.813 26.04 136.64L28.58 128.78L24.47 126.78L19.82 133.64C17.7622 132.93 15.6329 132.447 13.47 132.2L12.3 124H7.71L6.54 132.2C4.34 132.45 2.22 132.94 0.19 133.64L0 133.35H0.01ZM34.18 168.4L17.92 160.78C17.7875 159.929 17.5173 159.105 17.12 158.34L25.8 142.62C29.5329 145.652 32.3098 149.699 33.7965 154.273C35.2833 158.846 35.4164 163.752 34.18 168.4ZM33.33 171.03C31.5915 175.513 28.5972 179.401 24.706 182.226C20.8147 185.051 16.1915 186.695 11.39 186.96L13.62 169.14C14.3833 168.75 15.0816 168.244 15.69 167.64L33.33 171.03ZM0.01 139.08C3.16397 137.704 6.56881 136.995 10.01 137C15.01 137 19.66 138.47 23.57 141L11.29 154.1C10.4421 153.964 9.57788 153.964 8.73 154.1L0.01 144.8V139.08ZM0.01 161.76V153.11L2.89 158.34C2.49 159.11 2.23 159.93 2.1 160.78L0.01 161.76ZM0.01 184.92V168.47L4.33 167.64C4.93 168.24 5.63 168.75 6.4 169.14L8.63 186.96C5.66 186.8 2.73 186.11 0.01 184.92ZM10.01 156C11.6013 156 13.1274 156.632 14.2526 157.757C15.3779 158.883 16.01 160.409 16.01 162C16.01 163.591 15.3779 165.117 14.2526 166.243C13.1274 167.368 11.6013 168 10.01 168C8.4187 168 6.89258 167.368 5.76736 166.243C4.64214 165.117 4.01 163.591 4.01 162C4.01 160.409 4.64214 158.883 5.76736 157.757C6.89258 156.632 8.4187 156 10.01 156ZM10.01 158C8.94913 158 7.93172 158.421 7.18157 159.172C6.43143 159.922 6.01 160.939 6.01 162C6.01 163.061 6.43143 164.078 7.18157 164.828C7.93172 165.579 8.94913 166 10.01 166C11.0709 166 12.0883 165.579 12.8384 164.828C13.5886 164.078 14.01 163.061 14.01 162C14.01 160.939 13.5886 159.922 12.8384 159.172C12.0883 158.421 11.0709 158 10.01 158ZM0.01 141.28V141.88L9.49 152.01C9.84 151.99 10.19 151.99 10.53 152.01L20.4 141.47C17.1797 139.839 13.6196 138.993 10.01 139C6.43 139 3.03 139.82 0.01 141.28ZM0.01 159.57L0.35 159.41C0.44 159.07 0.55 158.74 0.67 158.42L0.01 157.22V159.57ZM0.01 182.72C1.98 183.67 4.11 184.35 6.35 184.71L4.55 170.38C4.26464 170.192 3.9877 169.992 3.72 169.78L0.01 170.48V182.72ZM13.67 184.71C17.2309 184.133 20.6064 182.727 23.5245 180.606C26.4426 178.485 28.8217 175.709 30.47 172.5L16.3 169.78C16.03 169.99 15.75 170.2 15.46 170.38L13.67 184.71ZM32.74 165.54C33.2994 161.975 33.0096 158.328 31.894 154.897C30.7785 151.465 28.8687 148.345 26.32 145.79L19.35 158.42C19.47 158.74 19.58 159.07 19.67 159.41L32.74 165.54ZM137.55 360L133.48 354.3L136.31 351.47L143.04 356.27C143.74 355.71 144.44 355.16 145.18 354.64L142.28 346.89L145.74 344.89L150.99 351.27C151.81 350.9 152.64 350.55 153.49 350.24L152.69 342.02L156.55 340.98L159.98 348.5C160.86 348.35 161.75 348.24 162.65 348.15L164.01 340H168.01L169.37 348.15C170.27 348.24 171.17 348.35 172.04 348.5L175.47 340.98L179.33 342.02L178.53 350.24C179.38 350.55 180.21 350.9 181.03 351.27L186.28 344.89L189.74 346.89L186.84 354.64C187.58 355.16 188.29 355.71 188.98 356.28L195.71 351.48L198.54 354.3L194.47 360H137.55ZM139.98 360H192.04L195.94 354.54L195.47 354.07L188.84 358.8C187.467 357.556 185.996 356.425 184.44 355.42L187.3 347.79L186.72 347.46L181.54 353.75C179.895 352.901 178.182 352.189 176.42 351.62L177.2 343.52L176.56 343.34L173.19 350.76C171.379 350.371 169.54 350.13 167.69 350.04L166.34 342H165.68L164.34 350.04C162.46 350.14 160.62 350.37 158.84 350.76L155.46 343.34L154.82 343.52L155.6 351.62C153.838 352.189 152.126 352.901 150.48 353.75L145.3 347.46L144.72 347.79L147.58 355.42C146.02 356.42 144.55 357.56 143.18 358.8L136.55 354.07L136.08 354.54L139.98 360ZM149.73 360C153.686 357.306 158.249 355.639 163.01 355.15V360H149.73ZM182.29 360H169.01V355.15C173.91 355.65 178.43 357.37 182.29 360ZM153.63 360H161.01V357.46C158.439 357.942 155.953 358.798 153.63 360ZM178.39 360C176.067 358.798 173.581 357.942 171.01 357.46V360H178.39ZM358.8 0H357.59L359.09 3.28C356.996 5.04538 355.055 6.98571 353.29 9.08L343.91 4.78L342.26 7.04L349.26 14.62C347.805 16.9514 346.554 19.4038 345.52 21.95L335.28 20.75L334.42 23.41L343.41 28.46C342.751 31.125 342.323 33.8417 342.13 36.58L332.01 38.6V41.4L342.13 43.42C342.33 46.2 342.76 48.92 343.41 51.54L334.41 56.59L335.28 59.25L345.52 58.05C346.56 60.59 347.81 63.05 349.26 65.38L342.26 72.96L343.91 75.22L353.29 70.92C355.055 73.0143 356.996 74.9546 359.09 76.72L354.79 86.1L357.05 87.75L360.01 85.02V87.68L357.17 90.3L352.32 86.78L356.68 77.28C355.291 76.0375 353.973 74.7188 352.73 73.33L343.23 77.69L339.71 72.84L346.79 65.16C345.851 63.5488 345.003 61.8862 344.25 60.18L333.87 61.39L332.02 55.69L341.13 50.57C340.737 48.7477 340.447 46.9048 340.26 45.05L330.01 43V37L340.26 34.95C340.45 33.08 340.74 31.23 341.13 29.43L332.02 24.31L333.87 18.61L344.25 19.82C345 18.11 345.85 16.45 346.79 14.84L339.71 7.16L343.23 2.31L352.73 6.67C353.973 5.2812 355.291 3.9625 356.68 2.72L355.43 0H358.8ZM360.01 52.7L353.53 56.44C351.201 51.2726 350.001 45.6679 350.01 40C350.002 34.3322 351.202 28.7278 353.53 23.56L360.01 27.3V52.7ZM360.01 13.54V18.06L357.54 16.63C358.31 15.56 359.14 14.53 360.01 13.54ZM360.01 66.46C359.14 65.47 358.31 64.44 357.54 63.36L360.01 61.94V66.46ZM360.01 50.39V29.61L354.51 26.43C351.161 35.1667 351.161 44.8333 354.51 53.57L360.01 50.39ZM62.43 360H64.59L67.7 353.22L62.85 349.7L55.17 356.78C53.5588 355.841 51.8962 354.993 50.19 354.24L51.4 343.86L45.7 342.01L40.58 351.12C38.7577 350.727 36.9148 350.437 35.06 350.25L33.01 340H27.01L24.96 350.25C23.11 350.44 21.26 350.73 19.44 351.12L14.32 342.01L8.62 343.86L9.83 354.24C8.12 354.99 6.46 355.84 4.85 356.78L0.01 352.32V357.49V354.99L4.63 359.25C6.96138 357.795 9.41378 356.544 11.96 355.51L10.76 345.27L13.42 344.41L18.47 353.4C21.135 352.741 23.8517 352.313 26.59 352.12L28.61 342H31.41L33.43 352.12C36.21 352.32 38.93 352.75 41.55 353.4L46.6 344.4L49.26 345.27L48.06 355.51C50.6 356.55 53.06 357.8 55.39 359.25L62.97 352.25L65.23 353.9L62.43 360ZM360.01 244.51L358.57 244.31L357.77 245.69L359.77 248.23L360.01 248.4V244.51ZM360.01 258.96L356.01 258.56L352.85 259.22L352.57 260.8L355.32 262.5L360.01 263.7V258.96ZM360.01 272.29L355.31 273.49L352.57 275.2L352.85 276.78L356.01 277.44L360.01 277.04V272.29ZM360.01 287.6L359.77 287.77L357.77 290.31L358.57 291.69L360.01 291.49V287.6ZM360.01 293.36L357.44 293.73L355.44 290.27L358.77 286.04L360.01 285.19V293.36ZM360.01 279.05L356.36 279.41L351.09 278.31L350.39 274.37L354.97 271.53L360.01 270.23V279.05ZM360.01 265.77L354.97 264.47L350.39 261.63L351.09 257.7L356.36 256.6L360.01 256.95V265.77ZM360.01 250.81L358.77 249.96L355.44 245.73L357.44 242.27L360.01 242.64V250.81ZM360.01 352.31V360H355.43L352.32 353.22L357.17 349.7L360.01 352.32V352.31ZM360.01 354.98L357.05 352.25L354.79 353.9L357.59 360H360.01V354.98Z" fill="#99afb8"/>
<path fill-rule="evenodd" clip-rule="evenodd" d="M0.01 241.82L1.01 243.28C2.2579 242.916 3.52695 242.629 4.81 242.42L6.01 234H14.01L15.21 242.42C16.51 242.63 17.78 242.92 19.01 243.28L23.81 236.22L30.99 239.73L28.39 247.8C29.46 248.56 30.49 249.38 31.46 250.26L38.73 245.91L43.77 252.13L37.95 258.39C38.59 259.52 39.15 260.69 39.65 261.91L48.1 261.18L49.9 268.98L41.95 272.05C42.03 273.35 42.03 274.65 41.95 275.95L49.9 279.02L48.1 286.82L39.65 286.09C39.1523 287.295 38.5847 288.471 37.95 289.61L43.77 295.87L38.73 302.09L31.46 297.74C30.49 298.62 29.46 299.44 28.39 300.2L30.99 308.27L23.8 311.77L19.02 304.72C17.78 305.08 16.51 305.37 15.22 305.58L14.01 314H6.01L4.81 305.58C3.52695 305.371 2.2579 305.084 1.01 304.72L0.01 306.18V302.65L0.21 302.36C2.23 303.06 4.36 303.56 6.55 303.8L7.72 312H12.3L13.47 303.8C15.67 303.55 17.79 303.06 19.82 302.36L24.47 309.23L28.57 307.23L26.04 299.36C27.8942 298.184 29.6144 296.809 31.17 295.26L38.25 299.5L41.13 295.95L35.48 289.86C36.62 288.03 37.58 286.06 38.3 284L46.54 284.7L47.57 280.24L39.84 277.25C40.07 275.089 40.07 272.911 39.84 270.75L47.57 267.75L46.54 263.3L38.3 264C37.5761 261.95 36.6305 259.985 35.48 258.14L41.13 252.04L38.25 248.5L31.17 252.73C29.6139 251.184 27.8937 249.813 26.04 248.64L28.58 240.78L24.47 238.78L19.82 245.64C17.7622 244.93 15.6329 244.447 13.47 244.2L12.3 236H7.71L6.54 244.2C4.34 244.45 2.22 244.94 0.19 245.64L0.01 245.365L0 245.35H0.01V241.82ZM8.63 298.96C5.66 298.8 2.73 298.11 0.01 296.92V294.72C1.98 295.67 4.11 296.35 6.35 296.71L4.55 282.38C4.26464 282.192 3.9877 281.992 3.72 281.78L0.01 282.48V280.47L4.33 279.64C4.93 280.24 5.63 280.75 6.4 281.14L8.63 298.96ZM0.01 253.28V251.08C3.16397 249.704 6.56881 248.995 10.01 249C15.01 249 19.66 250.47 23.57 253L11.29 266.1C10.4421 265.964 9.57788 265.964 8.73 266.1L0.01 256.8V253.88L9.49 264.01C9.84 263.99 10.19 263.99 10.53 264.01L20.4 253.47C17.1797 251.839 13.6196 250.993 10.01 251C6.43 251 3.03 251.82 0.01 253.28ZM0.01 269.22V265.11L2.89 270.34C2.49 271.11 2.23 271.93 2.1 272.78L0.01 273.76V271.57V269.22ZM17.92 272.78L34.18 280.4C35.4164 275.752 35.2833 270.846 33.7965 266.273C32.3098 261.699 29.5329 257.652 25.8 254.62L17.12 270.34C17.5173 271.105 17.7875 271.929 17.92 272.78ZM24.706 294.226C28.5972 291.401 31.5915 287.513 33.33 283.03L15.69 279.64C15.0816 280.244 14.3833 280.75 13.62 281.14L11.39 298.96C16.1915 298.695 20.8147 297.051 24.706 294.226ZM14.2526 269.757C13.1274 268.632 11.6013 268 10.01 268C8.4187 268 6.89258 268.632 5.76736 269.757C4.64214 270.883 4.01 272.409 4.01 274C4.01 275.591 4.64214 277.117 5.76736 278.243C6.89258 279.368 8.4187 280 10.01 280C11.6013 280 13.1274 279.368 14.2526 278.243C15.3779 277.117 16.01 275.591 16.01 274C16.01 272.409 15.3779 270.883 14.2526 269.757ZM31.894 266.897C33.0096 270.328 33.2994 273.975 32.74 277.54L19.67 271.41C19.58 271.07 19.47 270.74 19.35 270.42L26.32 257.79C28.8687 260.345 30.7785 263.465 31.894 266.897ZM23.5245 292.606C20.6064 294.727 17.2309 296.133 13.67 296.71L15.46 282.38C15.75 282.2 16.03 281.99 16.3 281.78L30.47 284.5C28.8217 287.709 26.4426 290.485 23.5245 292.606ZM7.18157 271.172C7.93172 270.421 8.94913 270 10.01 270C11.0709 270 12.0883 270.421 12.8384 271.172C13.5886 271.922 14.01 272.939 14.01 274C14.01 275.061 13.5886 276.078 12.8384 276.828C12.0883 277.579 11.0709 278 10.01 278C8.94913 278 7.93172 277.579 7.18157 276.828C6.43143 276.078 6.01 275.061 6.01 274C6.01 272.939 6.43143 271.922 7.18157 271.172Z" fill="#99afb8"/>
</svg>
